G04 #@! TF.GenerationSoftware,KiCad,Pcbnew,(5.1.5)-3*
G04 #@! TF.CreationDate,2020-02-02T18:50:59-05:00*
G04 #@! TF.ProjectId,Low-Profile USB,4c6f772d-5072-46f6-9669-6c6520555342,rev?*
G04 #@! TF.SameCoordinates,Original*
G04 #@! TF.FileFunction,Soldermask,Bot*
G04 #@! TF.FilePolarity,Negative*
%FSLAX46Y46*%
G04 Gerber Fmt 4.6, Leading zero omitted, Abs format (unit mm)*
G04 Created by KiCad (PCBNEW (5.1.5)-3) date 2020-02-02 18:50:59*
%MOMM*%
%LPD*%
G04 APERTURE LIST*
%ADD10C,0.100000*%
G04 APERTURE END LIST*
D10*
G36*
X152051000Y-98051000D02*
G01*
X139949000Y-98051000D01*
X139949000Y-85949000D01*
X152051000Y-85949000D01*
X152051000Y-98051000D01*
G37*
G36*
X150906564Y-81139389D02*
G01*
X151097833Y-81218615D01*
X151097835Y-81218616D01*
X151195143Y-81283635D01*
X151269973Y-81333635D01*
X151416365Y-81480027D01*
X151531385Y-81652167D01*
X151610611Y-81843436D01*
X151651000Y-82046484D01*
X151651000Y-82253516D01*
X151610611Y-82456564D01*
X151552095Y-82597835D01*
X151531384Y-82647835D01*
X151416365Y-82819973D01*
X151269973Y-82966365D01*
X151097835Y-83081384D01*
X151097834Y-83081385D01*
X151097833Y-83081385D01*
X150906564Y-83160611D01*
X150703516Y-83201000D01*
X150496484Y-83201000D01*
X150293436Y-83160611D01*
X150102167Y-83081385D01*
X150102166Y-83081385D01*
X150102165Y-83081384D01*
X149930027Y-82966365D01*
X149783635Y-82819973D01*
X149668616Y-82647835D01*
X149647905Y-82597835D01*
X149589389Y-82456564D01*
X149549000Y-82253516D01*
X149549000Y-82046484D01*
X149589389Y-81843436D01*
X149668615Y-81652167D01*
X149783635Y-81480027D01*
X149930027Y-81333635D01*
X150004857Y-81283635D01*
X150102165Y-81218616D01*
X150102167Y-81218615D01*
X150293436Y-81139389D01*
X150496484Y-81099000D01*
X150703516Y-81099000D01*
X150906564Y-81139389D01*
G37*
G36*
X144906564Y-81139389D02*
G01*
X145097833Y-81218615D01*
X145097835Y-81218616D01*
X145195143Y-81283635D01*
X145269973Y-81333635D01*
X145416365Y-81480027D01*
X145531385Y-81652167D01*
X145610611Y-81843436D01*
X145651000Y-82046484D01*
X145651000Y-82253516D01*
X145610611Y-82456564D01*
X145552095Y-82597835D01*
X145531384Y-82647835D01*
X145416365Y-82819973D01*
X145269973Y-82966365D01*
X145097835Y-83081384D01*
X145097834Y-83081385D01*
X145097833Y-83081385D01*
X144906564Y-83160611D01*
X144703516Y-83201000D01*
X144496484Y-83201000D01*
X144293436Y-83160611D01*
X144102167Y-83081385D01*
X144102166Y-83081385D01*
X144102165Y-83081384D01*
X143930027Y-82966365D01*
X143783635Y-82819973D01*
X143668616Y-82647835D01*
X143647905Y-82597835D01*
X143589389Y-82456564D01*
X143549000Y-82253516D01*
X143549000Y-82046484D01*
X143589389Y-81843436D01*
X143668615Y-81652167D01*
X143783635Y-81480027D01*
X143930027Y-81333635D01*
X144004857Y-81283635D01*
X144102165Y-81218616D01*
X144102167Y-81218615D01*
X144293436Y-81139389D01*
X144496484Y-81099000D01*
X144703516Y-81099000D01*
X144906564Y-81139389D01*
G37*
G36*
X141906564Y-81139389D02*
G01*
X142097833Y-81218615D01*
X142097835Y-81218616D01*
X142195143Y-81283635D01*
X142269973Y-81333635D01*
X142416365Y-81480027D01*
X142531385Y-81652167D01*
X142610611Y-81843436D01*
X142651000Y-82046484D01*
X142651000Y-82253516D01*
X142610611Y-82456564D01*
X142552095Y-82597835D01*
X142531384Y-82647835D01*
X142416365Y-82819973D01*
X142269973Y-82966365D01*
X142097835Y-83081384D01*
X142097834Y-83081385D01*
X142097833Y-83081385D01*
X141906564Y-83160611D01*
X141703516Y-83201000D01*
X141496484Y-83201000D01*
X141293436Y-83160611D01*
X141102167Y-83081385D01*
X141102166Y-83081385D01*
X141102165Y-83081384D01*
X140930027Y-82966365D01*
X140783635Y-82819973D01*
X140668616Y-82647835D01*
X140647905Y-82597835D01*
X140589389Y-82456564D01*
X140549000Y-82253516D01*
X140549000Y-82046484D01*
X140589389Y-81843436D01*
X140668615Y-81652167D01*
X140783635Y-81480027D01*
X140930027Y-81333635D01*
X141004857Y-81283635D01*
X141102165Y-81218616D01*
X141102167Y-81218615D01*
X141293436Y-81139389D01*
X141496484Y-81099000D01*
X141703516Y-81099000D01*
X141906564Y-81139389D01*
G37*
G36*
X147906564Y-81089389D02*
G01*
X148027277Y-81139390D01*
X148097835Y-81168616D01*
X148172665Y-81218616D01*
X148269973Y-81283635D01*
X148416365Y-81430027D01*
X148531385Y-81602167D01*
X148610611Y-81793436D01*
X148651000Y-81996484D01*
X148651000Y-82203516D01*
X148610611Y-82406564D01*
X148531385Y-82597833D01*
X148531384Y-82597835D01*
X148416365Y-82769973D01*
X148269973Y-82916365D01*
X148097835Y-83031384D01*
X148097834Y-83031385D01*
X148097833Y-83031385D01*
X147906564Y-83110611D01*
X147703516Y-83151000D01*
X147496484Y-83151000D01*
X147293436Y-83110611D01*
X147102167Y-83031385D01*
X147102166Y-83031385D01*
X147102165Y-83031384D01*
X146930027Y-82916365D01*
X146783635Y-82769973D01*
X146668616Y-82597835D01*
X146668615Y-82597833D01*
X146589389Y-82406564D01*
X146549000Y-82203516D01*
X146549000Y-81996484D01*
X146589389Y-81793436D01*
X146668615Y-81602167D01*
X146783635Y-81430027D01*
X146930027Y-81283635D01*
X147027335Y-81218616D01*
X147102165Y-81168616D01*
X147172723Y-81139390D01*
X147293436Y-81089389D01*
X147496484Y-81049000D01*
X147703516Y-81049000D01*
X147906564Y-81089389D01*
G37*
M02*
