G04 #@! TF.GenerationSoftware,KiCad,Pcbnew,(5.1.5)-3*
G04 #@! TF.CreationDate,2020-02-02T18:50:59-05:00*
G04 #@! TF.ProjectId,Low-Profile USB,4c6f772d-5072-46f6-9669-6c6520555342,rev?*
G04 #@! TF.SameCoordinates,Original*
G04 #@! TF.FileFunction,Copper,L2,Bot*
G04 #@! TF.FilePolarity,Positive*
%FSLAX46Y46*%
G04 Gerber Fmt 4.6, Leading zero omitted, Abs format (unit mm)*
G04 Created by KiCad (PCBNEW (5.1.5)-3) date 2020-02-02 18:50:59*
%MOMM*%
%LPD*%
G04 APERTURE LIST*
%ADD10R,12.000000X12.000000*%
%ADD11C,2.000000*%
%ADD12C,0.254000*%
G04 APERTURE END LIST*
D10*
X146000000Y-92000000D03*
D11*
X141600000Y-82150000D03*
X147600000Y-82100000D03*
X144600000Y-82150000D03*
X150600000Y-82150000D03*
D12*
G36*
X143825537Y-80701082D02*
G01*
X143557748Y-80880013D01*
X143330013Y-81107748D01*
X143151082Y-81375537D01*
X143027832Y-81673088D01*
X142965000Y-81988967D01*
X142965000Y-82311033D01*
X143027832Y-82626912D01*
X143151082Y-82924463D01*
X143330013Y-83192252D01*
X143557748Y-83419987D01*
X143825537Y-83598918D01*
X144123088Y-83722168D01*
X144438967Y-83785000D01*
X144761033Y-83785000D01*
X145076912Y-83722168D01*
X145374463Y-83598918D01*
X145642252Y-83419987D01*
X145869987Y-83192252D01*
X146048918Y-82924463D01*
X146110355Y-82776140D01*
X146151082Y-82874463D01*
X146330013Y-83142252D01*
X146557748Y-83369987D01*
X146825537Y-83548918D01*
X147123088Y-83672168D01*
X147438967Y-83735000D01*
X147761033Y-83735000D01*
X148076912Y-83672168D01*
X148374463Y-83548918D01*
X148642252Y-83369987D01*
X148869987Y-83142252D01*
X149048918Y-82874463D01*
X149089645Y-82776140D01*
X149151082Y-82924463D01*
X149330013Y-83192252D01*
X149557748Y-83419987D01*
X149825537Y-83598918D01*
X150123088Y-83722168D01*
X150438967Y-83785000D01*
X150761033Y-83785000D01*
X151076912Y-83722168D01*
X151374463Y-83598918D01*
X151642252Y-83419987D01*
X151869987Y-83192252D01*
X152048918Y-82924463D01*
X152172168Y-82626912D01*
X152235000Y-82311033D01*
X152235000Y-81988967D01*
X152172168Y-81673088D01*
X152048918Y-81375537D01*
X151869987Y-81107748D01*
X151642252Y-80880013D01*
X151374463Y-80701082D01*
X151275283Y-80660000D01*
X152340001Y-80660000D01*
X152340000Y-84726619D01*
X151556232Y-85510388D01*
X151531053Y-85531052D01*
X151510389Y-85556231D01*
X151510386Y-85556234D01*
X151448575Y-85631550D01*
X151387290Y-85746208D01*
X151349551Y-85870618D01*
X151336808Y-86000000D01*
X151340001Y-86032419D01*
X151340000Y-97340000D01*
X140660000Y-97340000D01*
X140660000Y-86032412D01*
X140663192Y-86000000D01*
X140660000Y-85967588D01*
X140660000Y-85967581D01*
X140650450Y-85870617D01*
X140612710Y-85746207D01*
X140551425Y-85631550D01*
X140535963Y-85612710D01*
X140489614Y-85556233D01*
X140489612Y-85556231D01*
X140468948Y-85531052D01*
X140443770Y-85510389D01*
X139660000Y-84726620D01*
X139660000Y-80660000D01*
X143924717Y-80660000D01*
X143825537Y-80701082D01*
G37*
X143825537Y-80701082D02*
X143557748Y-80880013D01*
X143330013Y-81107748D01*
X143151082Y-81375537D01*
X143027832Y-81673088D01*
X142965000Y-81988967D01*
X142965000Y-82311033D01*
X143027832Y-82626912D01*
X143151082Y-82924463D01*
X143330013Y-83192252D01*
X143557748Y-83419987D01*
X143825537Y-83598918D01*
X144123088Y-83722168D01*
X144438967Y-83785000D01*
X144761033Y-83785000D01*
X145076912Y-83722168D01*
X145374463Y-83598918D01*
X145642252Y-83419987D01*
X145869987Y-83192252D01*
X146048918Y-82924463D01*
X146110355Y-82776140D01*
X146151082Y-82874463D01*
X146330013Y-83142252D01*
X146557748Y-83369987D01*
X146825537Y-83548918D01*
X147123088Y-83672168D01*
X147438967Y-83735000D01*
X147761033Y-83735000D01*
X148076912Y-83672168D01*
X148374463Y-83548918D01*
X148642252Y-83369987D01*
X148869987Y-83142252D01*
X149048918Y-82874463D01*
X149089645Y-82776140D01*
X149151082Y-82924463D01*
X149330013Y-83192252D01*
X149557748Y-83419987D01*
X149825537Y-83598918D01*
X150123088Y-83722168D01*
X150438967Y-83785000D01*
X150761033Y-83785000D01*
X151076912Y-83722168D01*
X151374463Y-83598918D01*
X151642252Y-83419987D01*
X151869987Y-83192252D01*
X152048918Y-82924463D01*
X152172168Y-82626912D01*
X152235000Y-82311033D01*
X152235000Y-81988967D01*
X152172168Y-81673088D01*
X152048918Y-81375537D01*
X151869987Y-81107748D01*
X151642252Y-80880013D01*
X151374463Y-80701082D01*
X151275283Y-80660000D01*
X152340001Y-80660000D01*
X152340000Y-84726619D01*
X151556232Y-85510388D01*
X151531053Y-85531052D01*
X151510389Y-85556231D01*
X151510386Y-85556234D01*
X151448575Y-85631550D01*
X151387290Y-85746208D01*
X151349551Y-85870618D01*
X151336808Y-86000000D01*
X151340001Y-86032419D01*
X151340000Y-97340000D01*
X140660000Y-97340000D01*
X140660000Y-86032412D01*
X140663192Y-86000000D01*
X140660000Y-85967588D01*
X140660000Y-85967581D01*
X140650450Y-85870617D01*
X140612710Y-85746207D01*
X140551425Y-85631550D01*
X140535963Y-85612710D01*
X140489614Y-85556233D01*
X140489612Y-85556231D01*
X140468948Y-85531052D01*
X140443770Y-85510389D01*
X139660000Y-84726620D01*
X139660000Y-80660000D01*
X143924717Y-80660000D01*
X143825537Y-80701082D01*
M02*
